<svg width="48" height="48" viewBox="0 0 128 128" fill="none" xmlns="http://www.w3.org/2000/svg">
<rect width="128" height="128" fill="white"/>
<rect width="128" height="128" fill="#615F58"/>
<path d="M89.36 73.0133C86.08 73.0133 82.9067 72.48 79.9467 71.52C79.0133 71.2 77.9733 71.44 77.2533 72.16L73.0667 77.4133C65.52 73.8133 58.4533 67.0133 54.6933 59.2L59.8933 54.7733C60.6133 54.0267 60.8267 52.9867 60.5333 52.0533C59.5467 49.0933 59.04 45.92 59.04 42.64C59.04 41.2 57.84 40 56.4 40H47.1733C45.7333 40 44 40.64 44 42.64C44 67.4133 64.6133 88 89.36 88C91.2533 88 92 86.32 92 84.8533V75.6533C92 74.2133 90.8 73.0133 89.36 73.0133Z" fill="white"/>
</svg>
