<svg width="48" height="48" viewBox="0 0 128 128" fill="none" xmlns="http://www.w3.org/2000/svg">
<rect width="128" height="128" fill="white"/>
<rect width="128" height="128" fill="#615F58"/>
<path d="M56 61.6H50.6667V66.4H56V61.6ZM66.6667 61.6H61.3333V66.4H66.6667V61.6ZM77.3333 61.6H72V66.4H77.3333V61.6ZM82.6667 44.8H80V40H74.6667V44.8H53.3333V40H48V44.8H45.3333C42.3733 44.8 40.0267 46.96 40.0267 49.6L40 83.2C40 85.84 42.3733 88 45.3333 88H82.6667C85.6 88 88 85.84 88 83.2V49.6C88 46.96 85.6 44.8 82.6667 44.8ZM82.6667 83.2H45.3333V56.8H82.6667V83.2Z" fill="white"/>
</svg>
